<mxfile host="app.diagrams.net" modified="2023-11-15T00:50:29.677Z" agent="Mozilla/5.0 (Windows NT 10.0; Win64; x64) AppleWebKit/537.36 (KHTML, like Gecko) Chrome/119.0.0.0 Safari/537.36" etag="kTap8BCdpwRm_-1tyeu-" version="22.1.1" type="github">
  <diagram name="Page-1" id="KgpxVXigs59258O4dVcj">
    <mxGraphModel dx="1434" dy="790" grid="1" gridSize="10" guides="1" tooltips="1" connect="1" arrows="1" fold="1" page="1" pageScale="1" pageWidth="850" pageHeight="1100" math="0" shadow="0">
      <root>
        <mxCell id="0" />
        <mxCell id="1" parent="0" />
        <mxCell id="Shge1h-AJ0qM2_w3c1ry-7" style="edgeStyle=orthogonalEdgeStyle;rounded=0;orthogonalLoop=1;jettySize=auto;html=1;entryX=0.5;entryY=0;entryDx=0;entryDy=0;" edge="1" parent="1" source="Shge1h-AJ0qM2_w3c1ry-1" target="Shge1h-AJ0qM2_w3c1ry-4">
          <mxGeometry relative="1" as="geometry" />
        </mxCell>
        <mxCell id="Shge1h-AJ0qM2_w3c1ry-8" style="edgeStyle=orthogonalEdgeStyle;rounded=0;orthogonalLoop=1;jettySize=auto;html=1;" edge="1" parent="1" source="Shge1h-AJ0qM2_w3c1ry-1" target="Shge1h-AJ0qM2_w3c1ry-3">
          <mxGeometry relative="1" as="geometry" />
        </mxCell>
        <mxCell id="Shge1h-AJ0qM2_w3c1ry-9" style="edgeStyle=orthogonalEdgeStyle;rounded=0;orthogonalLoop=1;jettySize=auto;html=1;entryX=0.5;entryY=0;entryDx=0;entryDy=0;" edge="1" parent="1" source="Shge1h-AJ0qM2_w3c1ry-1" target="Shge1h-AJ0qM2_w3c1ry-5">
          <mxGeometry relative="1" as="geometry" />
        </mxCell>
        <mxCell id="Shge1h-AJ0qM2_w3c1ry-10" style="edgeStyle=orthogonalEdgeStyle;rounded=0;orthogonalLoop=1;jettySize=auto;html=1;entryX=1;entryY=0.5;entryDx=0;entryDy=0;" edge="1" parent="1" source="Shge1h-AJ0qM2_w3c1ry-1" target="Shge1h-AJ0qM2_w3c1ry-6">
          <mxGeometry relative="1" as="geometry" />
        </mxCell>
        <mxCell id="Shge1h-AJ0qM2_w3c1ry-1" value="Home Page" style="rounded=0;whiteSpace=wrap;html=1;" vertex="1" parent="1">
          <mxGeometry x="365" y="80" width="120" height="60" as="geometry" />
        </mxCell>
        <mxCell id="Shge1h-AJ0qM2_w3c1ry-13" style="edgeStyle=orthogonalEdgeStyle;rounded=0;orthogonalLoop=1;jettySize=auto;html=1;" edge="1" parent="1" source="Shge1h-AJ0qM2_w3c1ry-3" target="Shge1h-AJ0qM2_w3c1ry-14">
          <mxGeometry relative="1" as="geometry">
            <mxPoint x="770" y="280" as="targetPoint" />
          </mxGeometry>
        </mxCell>
        <mxCell id="Shge1h-AJ0qM2_w3c1ry-16" style="edgeStyle=orthogonalEdgeStyle;rounded=0;orthogonalLoop=1;jettySize=auto;html=1;entryX=0.5;entryY=0;entryDx=0;entryDy=0;" edge="1" parent="1" source="Shge1h-AJ0qM2_w3c1ry-3" target="Shge1h-AJ0qM2_w3c1ry-15">
          <mxGeometry relative="1" as="geometry" />
        </mxCell>
        <mxCell id="Shge1h-AJ0qM2_w3c1ry-3" value="About me" style="rounded=0;whiteSpace=wrap;html=1;" vertex="1" parent="1">
          <mxGeometry x="650" y="180" width="120" height="60" as="geometry" />
        </mxCell>
        <mxCell id="Shge1h-AJ0qM2_w3c1ry-19" style="edgeStyle=orthogonalEdgeStyle;rounded=0;orthogonalLoop=1;jettySize=auto;html=1;" edge="1" parent="1" source="Shge1h-AJ0qM2_w3c1ry-4" target="Shge1h-AJ0qM2_w3c1ry-20">
          <mxGeometry relative="1" as="geometry">
            <mxPoint x="470" y="280" as="targetPoint" />
          </mxGeometry>
        </mxCell>
        <mxCell id="Shge1h-AJ0qM2_w3c1ry-4" value="Experience" style="rounded=0;whiteSpace=wrap;html=1;" vertex="1" parent="1">
          <mxGeometry x="440" y="180" width="120" height="60" as="geometry" />
        </mxCell>
        <mxCell id="Shge1h-AJ0qM2_w3c1ry-21" style="edgeStyle=orthogonalEdgeStyle;rounded=0;orthogonalLoop=1;jettySize=auto;html=1;" edge="1" parent="1" source="Shge1h-AJ0qM2_w3c1ry-5" target="Shge1h-AJ0qM2_w3c1ry-22">
          <mxGeometry relative="1" as="geometry">
            <mxPoint x="380" y="280" as="targetPoint" />
          </mxGeometry>
        </mxCell>
        <mxCell id="Shge1h-AJ0qM2_w3c1ry-5" value="Blog" style="rounded=0;whiteSpace=wrap;html=1;" vertex="1" parent="1">
          <mxGeometry x="290" y="180" width="120" height="60" as="geometry" />
        </mxCell>
        <mxCell id="Shge1h-AJ0qM2_w3c1ry-23" style="edgeStyle=orthogonalEdgeStyle;rounded=0;orthogonalLoop=1;jettySize=auto;html=1;" edge="1" parent="1" source="Shge1h-AJ0qM2_w3c1ry-6" target="Shge1h-AJ0qM2_w3c1ry-24">
          <mxGeometry relative="1" as="geometry">
            <mxPoint x="80" y="280" as="targetPoint" />
          </mxGeometry>
        </mxCell>
        <mxCell id="Shge1h-AJ0qM2_w3c1ry-6" value="Contact" style="rounded=0;whiteSpace=wrap;html=1;" vertex="1" parent="1">
          <mxGeometry x="130" y="80" width="120" height="60" as="geometry" />
        </mxCell>
        <mxCell id="Shge1h-AJ0qM2_w3c1ry-14" value="Details about me" style="rounded=0;whiteSpace=wrap;html=1;" vertex="1" parent="1">
          <mxGeometry x="710" y="280" width="120" height="60" as="geometry" />
        </mxCell>
        <mxCell id="Shge1h-AJ0qM2_w3c1ry-15" value="Images of me" style="rounded=0;whiteSpace=wrap;html=1;" vertex="1" parent="1">
          <mxGeometry x="580" y="280" width="120" height="60" as="geometry" />
        </mxCell>
        <mxCell id="Shge1h-AJ0qM2_w3c1ry-20" value="some examples of code knowledge" style="rounded=0;whiteSpace=wrap;html=1;" vertex="1" parent="1">
          <mxGeometry x="440" y="280" width="120" height="60" as="geometry" />
        </mxCell>
        <mxCell id="Shge1h-AJ0qM2_w3c1ry-22" value="Blog about my web dev journey" style="rounded=0;whiteSpace=wrap;html=1;" vertex="1" parent="1">
          <mxGeometry x="290" y="280" width="120" height="60" as="geometry" />
        </mxCell>
        <mxCell id="Shge1h-AJ0qM2_w3c1ry-24" value="Located on home page simple form with button" style="rounded=0;whiteSpace=wrap;html=1;" vertex="1" parent="1">
          <mxGeometry x="130" y="180" width="120" height="60" as="geometry" />
        </mxCell>
      </root>
    </mxGraphModel>
  </diagram>
</mxfile>
